<svg width="996" height="315" viewBox="0 0 996 315" fill="none" xmlns="http://www.w3.org/2000/svg">
<g clip-path="url(#clip0_1161_31341)">
<rect width="996" height="315" fill="black"/>
<g opacity="0.5">
<path d="M284 -25.25C249.62 -25.25 221.75 2.62027 221.75 37L159.5 37C159.5 -31.7595 215.241 -87.5 284 -87.5L284 -25.25Z" fill="white"/>
<path d="M159.5 -25.25C125.12 -25.25 97.25 2.62027 97.25 37L35 37C35 -31.7595 90.7405 -87.5 159.5 -87.5L159.5 -25.25Z" fill="white"/>
</g>
<path d="M782 -25.25C747.62 -25.25 719.75 2.62027 719.75 37L657.5 37C657.5 -31.7595 713.241 -87.5 782 -87.5L782 -25.25Z" fill="white"/>
<path d="M657.5 -25.25C623.12 -25.25 595.25 2.62027 595.25 37L533 37C533 -31.7595 588.741 -87.5 657.5 -87.5L657.5 -25.25Z" fill="white"/>
<g opacity="0.5">
<path d="M1031 -25.25C996.62 -25.25 968.75 2.62027 968.75 37L906.5 37C906.5 -31.7595 962.241 -87.5 1031 -87.5L1031 -25.25Z" fill="white"/>
<path d="M906.5 -25.25C872.12 -25.25 844.25 2.62027 844.25 37L782 37C782 -31.7595 837.741 -87.5 906.5 -87.5L906.5 -25.25Z" fill="white"/>
</g>
<path d="M35 99.25C0.62026 99.25 -27.25 71.3797 -27.25 37L-89.5 37C-89.5 105.759 -33.7595 161.5 35 161.5L35 99.25Z" fill="white"/>
<path d="M35 223.75C0.62026 223.75 -27.25 251.62 -27.25 286L-89.5 286C-89.5 217.241 -33.7595 161.5 35 161.5L35 223.75Z" fill="white"/>
<path d="M35 -25.25C0.62026 -25.25 -27.25 2.62027 -27.25 37L-89.5 37C-89.5 -31.7595 -33.7595 -87.5 35 -87.5L35 -25.25Z" fill="white"/>
<path d="M35 348.25C0.62026 348.25 -27.25 320.38 -27.25 286L-89.5 286C-89.5 354.759 -33.7595 410.5 35 410.5L35 348.25Z" fill="white"/>
<g opacity="0.5">
<path d="M533 348.25C498.62 348.25 470.75 320.38 470.75 286L408.5 286C408.5 354.759 464.241 410.5 533 410.5L533 348.25Z" fill="white"/>
<path d="M408.5 348.25C374.12 348.25 346.25 320.38 346.25 286L284 286C284 354.759 339.741 410.5 408.5 410.5L408.5 348.25Z" fill="white"/>
</g>
<g opacity="0.5">
<path d="M782 348.25C747.62 348.25 719.75 320.38 719.75 286L657.5 286C657.5 354.759 713.241 410.5 782 410.5L782 348.25Z" fill="white"/>
<path d="M657.5 348.25C623.12 348.25 595.25 320.38 595.25 286L533 286C533 354.759 588.741 410.5 657.5 410.5L657.5 348.25Z" fill="white"/>
</g>
<path d="M1031 348.25C996.62 348.25 968.75 320.38 968.75 286L906.5 286C906.5 354.759 962.241 410.5 1031 410.5L1031 348.25Z" fill="white"/>
<path d="M906.5 348.25C872.12 348.25 844.25 320.38 844.25 286L782 286C782 354.759 837.741 410.5 906.5 410.5L906.5 348.25Z" fill="white"/>
<g opacity="0.3">
<path d="M1031 99.25C996.62 99.25 968.75 71.3797 968.75 37L906.5 37C906.5 105.759 962.241 161.5 1031 161.5L1031 99.25Z" fill="white"/>
<path d="M906.5 99.25C872.12 99.25 844.25 71.3797 844.25 37L782 37C782 105.759 837.741 161.5 906.5 161.5L906.5 99.25Z" fill="white"/>
<path d="M1031 223.75C996.62 223.75 968.75 251.62 968.75 286L906.5 286C906.5 217.241 962.241 161.5 1031 161.5L1031 223.75Z" fill="white"/>
<path d="M906.5 223.75C872.12 223.75 844.25 251.62 844.25 286L782 286C782 217.241 837.741 161.5 906.5 161.5L906.5 223.75Z" fill="white"/>
</g>
</g>
<defs>
<clipPath id="clip0_1161_31341">
<rect width="996" height="315" fill="white"/>
</clipPath>
</defs>
</svg>
