<svg width="1004" height="323" viewBox="0 0 1004 323" fill="none" xmlns="http://www.w3.org/2000/svg">
<g clip-path="url(#clip0_1157_37597)" filter="url(#filter0_d_1157_37597)">
<rect width="996" height="315" transform="translate(4)" fill="black"/>
<g opacity="0.5">
<path d="M194.625 -87.5C194.625 -70.3101 180.69 -56.375 163.5 -56.375C146.31 -56.375 132.375 -70.3101 132.375 -87.5C132.375 -104.69 146.31 -118.625 163.5 -118.625C180.69 -118.625 194.625 -104.69 194.625 -87.5Z" fill="white"/>
<path d="M101.25 -149.75C101.25 -184.13 129.12 -212 163.5 -212C197.88 -212 225.75 -184.13 225.75 -149.75H101.25Z" fill="white"/>
<path d="M225.75 -25.25C225.75 9.1297 197.88 37 163.5 37C129.12 37 101.25 9.1297 101.25 -25.25H225.75Z" fill="white"/>
<path d="M101.25 -25.25C66.8703 -25.25 39 -53.1203 39 -87.5C39 -121.88 66.8703 -149.75 101.25 -149.75L101.25 -25.25Z" fill="white"/>
<path d="M225.75 -149.75C260.13 -149.75 288 -121.88 288 -87.5C288 -53.1203 260.13 -25.25 225.75 -25.25V-149.75Z" fill="white"/>
<path d="M101.25 -149.75H39C39 -184.13 66.8703 -212 101.25 -212V-149.75Z" fill="white"/>
<path d="M225.75 -25.25H288C288 9.1297 260.13 37 225.75 37V-25.25Z" fill="white"/>
<path d="M101.25 -25.25L101.25 37C66.8703 37 39 9.1297 39 -25.25H101.25Z" fill="white"/>
<path d="M225.75 -149.75V-212C260.13 -212 288 -184.13 288 -149.75H225.75Z" fill="white"/>
</g>
<g opacity="0.2">
<path d="M692.625 -87.5C692.625 -70.3101 678.69 -56.375 661.5 -56.375C644.31 -56.375 630.375 -70.3101 630.375 -87.5C630.375 -104.69 644.31 -118.625 661.5 -118.625C678.69 -118.625 692.625 -104.69 692.625 -87.5Z" fill="white"/>
<path d="M599.25 -149.75C599.25 -184.13 627.12 -212 661.5 -212C695.88 -212 723.75 -184.13 723.75 -149.75H599.25Z" fill="white"/>
<path d="M723.75 -25.25C723.75 9.1297 695.88 37 661.5 37C627.12 37 599.25 9.1297 599.25 -25.25H723.75Z" fill="white"/>
<path d="M599.25 -25.25C564.87 -25.25 537 -53.1203 537 -87.5C537 -121.88 564.87 -149.75 599.25 -149.75L599.25 -25.25Z" fill="white"/>
<path d="M723.75 -149.75C758.13 -149.75 786 -121.88 786 -87.5C786 -53.1203 758.13 -25.25 723.75 -25.25V-149.75Z" fill="white"/>
<path d="M599.25 -149.75H537C537 -184.13 564.87 -212 599.25 -212V-149.75Z" fill="white"/>
<path d="M723.75 -25.25H786C786 9.1297 758.13 37 723.75 37V-25.25Z" fill="white"/>
<path d="M599.25 -25.25L599.25 37C564.87 37 537 9.1297 537 -25.25H599.25Z" fill="white"/>
<path d="M723.75 -149.75V-212C758.13 -212 786 -184.13 786 -149.75H723.75Z" fill="white"/>
</g>
<path d="M-54.375 -87.5C-54.375 -70.3101 -68.3101 -56.375 -85.5 -56.375C-102.69 -56.375 -116.625 -70.3101 -116.625 -87.5C-116.625 -104.69 -102.69 -118.625 -85.5 -118.625C-68.3101 -118.625 -54.375 -104.69 -54.375 -87.5Z" fill="white"/>
<path d="M-147.75 -149.75C-147.75 -184.13 -119.88 -212 -85.5 -212C-51.1203 -212 -23.25 -184.13 -23.25 -149.75H-147.75Z" fill="white"/>
<path d="M-23.25 -25.25C-23.25 9.1297 -51.1203 37 -85.5 37C-119.88 37 -147.75 9.1297 -147.75 -25.25H-23.25Z" fill="white"/>
<path d="M-147.75 -25.25C-182.13 -25.25 -210 -53.1203 -210 -87.5C-210 -121.88 -182.13 -149.75 -147.75 -149.75L-147.75 -25.25Z" fill="white"/>
<path d="M-23.25 -149.75C11.1297 -149.75 39 -121.88 39 -87.5C39 -53.1203 11.1297 -25.25 -23.25 -25.25V-149.75Z" fill="white"/>
<path d="M-147.75 -149.75H-210C-210 -184.13 -182.13 -212 -147.75 -212V-149.75Z" fill="white"/>
<path d="M-23.25 -25.25H39C39 9.1297 11.1297 37 -23.25 37V-25.25Z" fill="white"/>
<path d="M-147.75 -25.25L-147.75 37C-182.13 37 -210 9.1297 -210 -25.25H-147.75Z" fill="white"/>
<path d="M-23.25 -149.75V-212C11.1297 -212 39 -184.13 39 -149.75H-23.25Z" fill="white"/>
<g opacity="0.5">
<path d="M941.625 -87.5C941.625 -70.3101 927.69 -56.375 910.5 -56.375C893.31 -56.375 879.375 -70.3101 879.375 -87.5C879.375 -104.69 893.31 -118.625 910.5 -118.625C927.69 -118.625 941.625 -104.69 941.625 -87.5Z" fill="white"/>
<path d="M848.25 -149.75C848.25 -184.13 876.12 -212 910.5 -212C944.88 -212 972.75 -184.13 972.75 -149.75H848.25Z" fill="white"/>
<path d="M972.75 -25.25C972.75 9.1297 944.88 37 910.5 37C876.12 37 848.25 9.1297 848.25 -25.25H972.75Z" fill="white"/>
<path d="M848.25 -25.25C813.87 -25.25 786 -53.1203 786 -87.5C786 -121.88 813.87 -149.75 848.25 -149.75L848.25 -25.25Z" fill="white"/>
<path d="M972.75 -149.75C1007.13 -149.75 1035 -121.88 1035 -87.5C1035 -53.1203 1007.13 -25.25 972.75 -25.25V-149.75Z" fill="white"/>
<path d="M848.25 -149.75H786C786 -184.13 813.87 -212 848.25 -212V-149.75Z" fill="white"/>
<path d="M972.75 -25.25H1035C1035 9.1297 1007.13 37 972.75 37V-25.25Z" fill="white"/>
<path d="M848.25 -25.25L848.25 37C813.87 37 786 9.1297 786 -25.25H848.25Z" fill="white"/>
<path d="M972.75 -149.75V-212C1007.13 -212 1035 -184.13 1035 -149.75H972.75Z" fill="white"/>
</g>
<path d="M-54.375 161.5C-54.375 178.69 -68.3101 192.625 -85.5 192.625C-102.69 192.625 -116.625 178.69 -116.625 161.5C-116.625 144.31 -102.69 130.375 -85.5 130.375C-68.3101 130.375 -54.375 144.31 -54.375 161.5Z" fill="white"/>
<path d="M-147.75 99.25C-147.75 64.8703 -119.88 37 -85.5 37C-51.1203 37 -23.25 64.8703 -23.25 99.25H-147.75Z" fill="white"/>
<path d="M-23.25 223.75C-23.25 258.13 -51.1203 286 -85.5 286C-119.88 286 -147.75 258.13 -147.75 223.75H-23.25Z" fill="white"/>
<path d="M-147.75 223.75C-182.13 223.75 -210 195.88 -210 161.5C-210 127.12 -182.13 99.25 -147.75 99.25L-147.75 223.75Z" fill="white"/>
<path d="M-23.25 99.25C11.1297 99.25 39 127.12 39 161.5C39 195.88 11.1297 223.75 -23.25 223.75V99.25Z" fill="white"/>
<path d="M-147.75 99.25H-210C-210 64.8703 -182.13 37 -147.75 37V99.25Z" fill="white"/>
<path d="M-23.25 223.75H39C39 258.13 11.1297 286 -23.25 286V223.75Z" fill="white"/>
<path d="M-147.75 223.75L-147.75 286C-182.13 286 -210 258.13 -210 223.75H-147.75Z" fill="white"/>
<path d="M-23.25 99.25V37C11.1297 37 39 64.8703 39 99.25H-23.25Z" fill="white"/>
<g opacity="0.3">
<path d="M941.625 161.5C941.625 178.69 927.69 192.625 910.5 192.625C893.31 192.625 879.375 178.69 879.375 161.5C879.375 144.31 893.31 130.375 910.5 130.375C927.69 130.375 941.625 144.31 941.625 161.5Z" fill="white"/>
<path d="M848.25 99.25C848.25 64.8703 876.12 37 910.5 37C944.88 37 972.75 64.8703 972.75 99.25H848.25Z" fill="white"/>
<path d="M972.75 223.75C972.75 258.13 944.88 286 910.5 286C876.12 286 848.25 258.13 848.25 223.75H972.75Z" fill="white"/>
<path d="M848.25 223.75C813.87 223.75 786 195.88 786 161.5C786 127.12 813.87 99.25 848.25 99.25L848.25 223.75Z" fill="white"/>
<path d="M972.75 99.25C1007.13 99.25 1035 127.12 1035 161.5C1035 195.88 1007.13 223.75 972.75 223.75V99.25Z" fill="white"/>
<path d="M848.25 99.25H786C786 64.8703 813.87 37 848.25 37V99.25Z" fill="white"/>
<path d="M972.75 223.75H1035C1035 258.13 1007.13 286 972.75 286V223.75Z" fill="white"/>
<path d="M848.25 223.75L848.25 286C813.87 286 786 258.13 786 223.75H848.25Z" fill="white"/>
<path d="M972.75 99.25V37C1007.13 37 1035 64.8703 1035 99.25H972.75Z" fill="white"/>
</g>
<path d="M-54.375 410.5C-54.375 427.69 -68.3101 441.625 -85.5 441.625C-102.69 441.625 -116.625 427.69 -116.625 410.5C-116.625 393.31 -102.69 379.375 -85.5 379.375C-68.3101 379.375 -54.375 393.31 -54.375 410.5Z" fill="white"/>
<path d="M-147.75 348.25C-147.75 313.87 -119.88 286 -85.5 286C-51.1203 286 -23.25 313.87 -23.25 348.25H-147.75Z" fill="white"/>
<path d="M-23.25 472.75C-23.25 507.13 -51.1203 535 -85.5 535C-119.88 535 -147.75 507.13 -147.75 472.75H-23.25Z" fill="white"/>
<path d="M-147.75 472.75C-182.13 472.75 -210 444.88 -210 410.5C-210 376.12 -182.13 348.25 -147.75 348.25L-147.75 472.75Z" fill="white"/>
<path d="M-23.25 348.25C11.1297 348.25 39 376.12 39 410.5C39 444.88 11.1297 472.75 -23.25 472.75V348.25Z" fill="white"/>
<path d="M-147.75 348.25H-210C-210 313.87 -182.13 286 -147.75 286V348.25Z" fill="white"/>
<path d="M-23.25 472.75H39C39 507.13 11.1297 535 -23.25 535V472.75Z" fill="white"/>
<path d="M-147.75 472.75L-147.75 535C-182.13 535 -210 507.13 -210 472.75H-147.75Z" fill="white"/>
<path d="M-23.25 348.25V286C11.1297 286 39 313.87 39 348.25H-23.25Z" fill="white"/>
<g opacity="0.5">
<path d="M443.625 410.5C443.625 427.69 429.69 441.625 412.5 441.625C395.31 441.625 381.375 427.69 381.375 410.5C381.375 393.31 395.31 379.375 412.5 379.375C429.69 379.375 443.625 393.31 443.625 410.5Z" fill="white"/>
<path d="M350.25 348.25C350.25 313.87 378.12 286 412.5 286C446.88 286 474.75 313.87 474.75 348.25H350.25Z" fill="white"/>
<path d="M474.75 472.75C474.75 507.13 446.88 535 412.5 535C378.12 535 350.25 507.13 350.25 472.75H474.75Z" fill="white"/>
<path d="M350.25 472.75C315.87 472.75 288 444.88 288 410.5C288 376.12 315.87 348.25 350.25 348.25L350.25 472.75Z" fill="white"/>
<path d="M474.75 348.25C509.13 348.25 537 376.12 537 410.5C537 444.88 509.13 472.75 474.75 472.75V348.25Z" fill="white"/>
<path d="M350.25 348.25H288C288 313.87 315.87 286 350.25 286V348.25Z" fill="white"/>
<path d="M474.75 472.75H537C537 507.13 509.13 535 474.75 535V472.75Z" fill="white"/>
<path d="M350.25 472.75L350.25 535C315.87 535 288 507.13 288 472.75H350.25Z" fill="white"/>
<path d="M474.75 348.25V286C509.13 286 537 313.87 537 348.25H474.75Z" fill="white"/>
</g>
<g opacity="0.5">
<path d="M692.625 410.5C692.625 427.69 678.69 441.625 661.5 441.625C644.31 441.625 630.375 427.69 630.375 410.5C630.375 393.31 644.31 379.375 661.5 379.375C678.69 379.375 692.625 393.31 692.625 410.5Z" fill="white"/>
<path d="M599.25 348.25C599.25 313.87 627.12 286 661.5 286C695.88 286 723.75 313.87 723.75 348.25H599.25Z" fill="white"/>
<path d="M723.75 472.75C723.75 507.13 695.88 535 661.5 535C627.12 535 599.25 507.13 599.25 472.75H723.75Z" fill="white"/>
<path d="M599.25 472.75C564.87 472.75 537 444.88 537 410.5C537 376.12 564.87 348.25 599.25 348.25L599.25 472.75Z" fill="white"/>
<path d="M723.75 348.25C758.13 348.25 786 376.12 786 410.5C786 444.88 758.13 472.75 723.75 472.75V348.25Z" fill="white"/>
<path d="M599.25 348.25H537C537 313.87 564.87 286 599.25 286V348.25Z" fill="white"/>
<path d="M723.75 472.75H786C786 507.13 758.13 535 723.75 535V472.75Z" fill="white"/>
<path d="M599.25 472.75L599.25 535C564.87 535 537 507.13 537 472.75H599.25Z" fill="white"/>
<path d="M723.75 348.25V286C758.13 286 786 313.87 786 348.25H723.75Z" fill="white"/>
</g>
<path d="M941.625 410.5C941.625 427.69 927.69 441.625 910.5 441.625C893.31 441.625 879.375 427.69 879.375 410.5C879.375 393.31 893.31 379.375 910.5 379.375C927.69 379.375 941.625 393.31 941.625 410.5Z" fill="white"/>
<path d="M848.25 348.25C848.25 313.87 876.12 286 910.5 286C944.88 286 972.75 313.87 972.75 348.25H848.25Z" fill="white"/>
<path d="M972.75 472.75C972.75 507.13 944.88 535 910.5 535C876.12 535 848.25 507.13 848.25 472.75H972.75Z" fill="white"/>
<path d="M848.25 472.75C813.87 472.75 786 444.88 786 410.5C786 376.12 813.87 348.25 848.25 348.25L848.25 472.75Z" fill="white"/>
<path d="M972.75 348.25C1007.13 348.25 1035 376.12 1035 410.5C1035 444.88 1007.13 472.75 972.75 472.75V348.25Z" fill="white"/>
<path d="M848.25 348.25H786C786 313.87 813.87 286 848.25 286V348.25Z" fill="white"/>
<path d="M972.75 472.75H1035C1035 507.13 1007.13 535 972.75 535V472.75Z" fill="white"/>
<path d="M848.25 472.75L848.25 535C813.87 535 786 507.13 786 472.75H848.25Z" fill="white"/>
<path d="M972.75 348.25V286C1007.13 286 1035 313.87 1035 348.25H972.75Z" fill="white"/>
</g>
<defs>
<filter id="filter0_d_1157_37597" x="0" y="0" width="1004" height="323" filterUnits="userSpaceOnUse" color-interpolation-filters="sRGB">
<feFlood flood-opacity="0" result="BackgroundImageFix"/>
<feColorMatrix in="SourceAlpha" type="matrix" values="0 0 0 0 0 0 0 0 0 0 0 0 0 0 0 0 0 0 127 0" result="hardAlpha"/>
<feOffset dy="4"/>
<feGaussianBlur stdDeviation="2"/>
<feComposite in2="hardAlpha" operator="out"/>
<feColorMatrix type="matrix" values="0 0 0 0 0 0 0 0 0 0 0 0 0 0 0 0 0 0 0.25 0"/>
<feBlend mode="normal" in2="BackgroundImageFix" result="effect1_dropShadow_1157_37597"/>
<feBlend mode="normal" in="SourceGraphic" in2="effect1_dropShadow_1157_37597" result="shape"/>
</filter>
<clipPath id="clip0_1157_37597">
<rect width="996" height="315" fill="white" transform="translate(4)"/>
</clipPath>
</defs>
</svg>
