<svg width="996" height="315" viewBox="0 0 996 315" fill="none" xmlns="http://www.w3.org/2000/svg">
<g clip-path="url(#clip0_1161_31171)">
<rect width="996" height="315" fill="black"/>
<g opacity="0.5">
<path d="M159.5 -25.25C159.5 9.12973 131.63 37 97.25 37C97.25 2.62027 125.12 -25.25 159.5 -25.25Z" fill="white"/>
<path d="M159.5 -25.25C193.88 -25.25 221.75 2.62029 221.75 37C187.37 37 159.5 9.12971 159.5 -25.25Z" fill="white"/>
<path d="M97.25 -87.5C97.25 -53.1203 69.3797 -25.25 35 -25.25C35 -59.6297 62.8703 -87.5 97.25 -87.5Z" fill="white"/>
<path d="M221.75 -87.5C256.13 -87.5 284 -59.6297 284 -25.25C249.62 -25.25 221.75 -53.1203 221.75 -87.5Z" fill="white"/>
<path d="M159.5 -118.625C176.69 -118.625 190.625 -104.69 190.625 -87.5C190.625 -70.3101 176.69 -56.375 159.5 -56.375C142.31 -56.375 128.375 -70.3101 128.375 -87.5C128.375 -104.69 142.31 -118.625 159.5 -118.625Z" fill="white"/>
<path d="M35 -149.75C69.3797 -149.75 97.25 -121.88 97.25 -87.5C62.8703 -87.5 35 -115.37 35 -149.75Z" fill="white"/>
<path d="M284 -149.75C284 -115.37 256.13 -87.5 221.75 -87.5C221.75 -121.88 249.62 -149.75 284 -149.75Z" fill="white"/>
<path d="M97.25 -212C131.63 -212 159.5 -184.13 159.5 -149.75C125.12 -149.75 97.25 -177.62 97.25 -212Z" fill="white"/>
<path d="M221.75 -212C221.75 -177.62 193.88 -149.75 159.5 -149.75C159.5 -184.13 187.37 -212 221.75 -212Z" fill="white"/>
</g>
<path d="M657.5 -25.25C657.5 9.12973 629.63 37 595.25 37C595.25 2.62027 623.12 -25.25 657.5 -25.25Z" fill="white"/>
<path d="M657.5 -25.25C691.88 -25.25 719.75 2.62029 719.75 37C685.37 37 657.5 9.12971 657.5 -25.25Z" fill="white"/>
<path d="M595.25 -87.5C595.25 -53.1203 567.38 -25.25 533 -25.25C533 -59.6297 560.87 -87.5 595.25 -87.5Z" fill="white"/>
<path d="M719.75 -87.5C754.13 -87.5 782 -59.6297 782 -25.25C747.62 -25.25 719.75 -53.1203 719.75 -87.5Z" fill="white"/>
<path d="M657.5 -118.625C674.69 -118.625 688.625 -104.69 688.625 -87.5C688.625 -70.3101 674.69 -56.375 657.5 -56.375C640.31 -56.375 626.375 -70.3101 626.375 -87.5C626.375 -104.69 640.31 -118.625 657.5 -118.625Z" fill="white"/>
<path d="M533 -149.75C567.38 -149.75 595.25 -121.88 595.25 -87.5C560.87 -87.5 533 -115.37 533 -149.75Z" fill="white"/>
<path d="M782 -149.75C782 -115.37 754.13 -87.5 719.75 -87.5C719.75 -121.88 747.62 -149.75 782 -149.75Z" fill="white"/>
<path d="M595.25 -212C629.63 -212 657.5 -184.13 657.5 -149.75C623.12 -149.75 595.25 -177.62 595.25 -212Z" fill="white"/>
<path d="M719.75 -212C719.75 -177.62 691.88 -149.75 657.5 -149.75C657.5 -184.13 685.37 -212 719.75 -212Z" fill="white"/>
<g opacity="0.5">
<path d="M906.5 -25.25C906.5 9.12973 878.63 37 844.25 37C844.25 2.62027 872.12 -25.25 906.5 -25.25Z" fill="white"/>
<path d="M906.5 -25.25C940.88 -25.25 968.75 2.62029 968.75 37C934.37 37 906.5 9.12971 906.5 -25.25Z" fill="white"/>
<path d="M844.25 -87.5C844.25 -53.1203 816.38 -25.25 782 -25.25C782 -59.6297 809.87 -87.5 844.25 -87.5Z" fill="white"/>
<path d="M968.75 -87.5C1003.13 -87.5 1031 -59.6297 1031 -25.25C996.62 -25.25 968.75 -53.1203 968.75 -87.5Z" fill="white"/>
<path d="M906.5 -118.625C923.69 -118.625 937.625 -104.69 937.625 -87.5C937.625 -70.3101 923.69 -56.375 906.5 -56.375C889.31 -56.375 875.375 -70.3101 875.375 -87.5C875.375 -104.69 889.31 -118.625 906.5 -118.625Z" fill="white"/>
<path d="M782 -149.75C816.38 -149.75 844.25 -121.88 844.25 -87.5C809.87 -87.5 782 -115.37 782 -149.75Z" fill="white"/>
<path d="M1031 -149.75C1031 -115.37 1003.13 -87.5 968.75 -87.5C968.75 -121.88 996.62 -149.75 1031 -149.75Z" fill="white"/>
<path d="M844.25 -212C878.63 -212 906.5 -184.13 906.5 -149.75C872.12 -149.75 844.25 -177.62 844.25 -212Z" fill="white"/>
<path d="M968.75 -212C968.75 -177.62 940.88 -149.75 906.5 -149.75C906.5 -184.13 934.37 -212 968.75 -212Z" fill="white"/>
</g>
<path d="M-89.5 223.75C-89.5 258.13 -117.37 286 -151.75 286C-151.75 251.62 -123.88 223.75 -89.5 223.75Z" fill="white"/>
<path d="M-89.5 223.75C-55.1203 223.75 -27.25 251.62 -27.25 286C-61.6297 286 -89.5 258.13 -89.5 223.75Z" fill="white"/>
<path d="M-151.75 161.5C-151.75 195.88 -179.62 223.75 -214 223.75C-214 189.37 -186.13 161.5 -151.75 161.5Z" fill="white"/>
<path d="M-27.25 161.5C7.12971 161.5 35 189.37 35 223.75C0.620266 223.75 -27.25 195.88 -27.25 161.5Z" fill="white"/>
<path d="M-89.5 130.375C-72.3101 130.375 -58.375 144.31 -58.375 161.5C-58.375 178.69 -72.3101 192.625 -89.5 192.625C-106.69 192.625 -120.625 178.69 -120.625 161.5C-120.625 144.31 -106.69 130.375 -89.5 130.375Z" fill="white"/>
<path d="M-214 99.25C-179.62 99.25 -151.75 127.12 -151.75 161.5C-186.13 161.5 -214 133.63 -214 99.25Z" fill="white"/>
<path d="M35 99.25C35 133.63 7.12973 161.5 -27.25 161.5C-27.25 127.12 0.620286 99.25 35 99.25Z" fill="white"/>
<path d="M-151.75 37C-117.37 37 -89.5 64.8703 -89.5 99.25C-123.88 99.25 -151.75 71.3797 -151.75 37Z" fill="white"/>
<path d="M-27.25 37C-27.25 71.3797 -55.1203 99.25 -89.5 99.25C-89.5 64.8703 -61.6297 37 -27.25 37Z" fill="white"/>
<path d="M-89.5 -25.25C-89.5 9.12973 -117.37 37 -151.75 37C-151.75 2.62027 -123.88 -25.25 -89.5 -25.25Z" fill="white"/>
<path d="M-89.5 -25.25C-55.1203 -25.25 -27.25 2.62029 -27.25 37C-61.6297 37 -89.5 9.12971 -89.5 -25.25Z" fill="white"/>
<path d="M-151.75 -87.5C-151.75 -53.1203 -179.62 -25.25 -214 -25.25C-214 -59.6297 -186.13 -87.5 -151.75 -87.5Z" fill="white"/>
<path d="M-27.25 -87.5C7.12971 -87.5 35 -59.6297 35 -25.25C0.620266 -25.25 -27.25 -53.1203 -27.25 -87.5Z" fill="white"/>
<path d="M-89.5 -118.625C-72.3101 -118.625 -58.375 -104.69 -58.375 -87.5C-58.375 -70.3101 -72.3101 -56.375 -89.5 -56.375C-106.69 -56.375 -120.625 -70.3101 -120.625 -87.5C-120.625 -104.69 -106.69 -118.625 -89.5 -118.625Z" fill="white"/>
<path d="M-214 -149.75C-179.62 -149.75 -151.75 -121.88 -151.75 -87.5C-186.13 -87.5 -214 -115.37 -214 -149.75Z" fill="white"/>
<path d="M35 -149.75C35 -115.37 7.12973 -87.5 -27.25 -87.5C-27.25 -121.88 0.620286 -149.75 35 -149.75Z" fill="white"/>
<path d="M-151.75 -212C-117.37 -212 -89.5 -184.13 -89.5 -149.75C-123.88 -149.75 -151.75 -177.62 -151.75 -212Z" fill="white"/>
<path d="M-27.25 -212C-27.25 -177.62 -55.1203 -149.75 -89.5 -149.75C-89.5 -184.13 -61.6297 -212 -27.25 -212Z" fill="white"/>
<path d="M-89.5 472.75C-89.5 507.13 -117.37 535 -151.75 535C-151.75 500.62 -123.88 472.75 -89.5 472.75Z" fill="white"/>
<path d="M-89.5 472.75C-55.1203 472.75 -27.25 500.62 -27.25 535C-61.6297 535 -89.5 507.13 -89.5 472.75Z" fill="white"/>
<path d="M-151.75 410.5C-151.75 444.88 -179.62 472.75 -214 472.75C-214 438.37 -186.13 410.5 -151.75 410.5Z" fill="white"/>
<path d="M-27.25 410.5C7.12971 410.5 35 438.37 35 472.75C0.620266 472.75 -27.25 444.88 -27.25 410.5Z" fill="white"/>
<path d="M-89.5 379.375C-72.3101 379.375 -58.375 393.31 -58.375 410.5C-58.375 427.69 -72.3101 441.625 -89.5 441.625C-106.69 441.625 -120.625 427.69 -120.625 410.5C-120.625 393.31 -106.69 379.375 -89.5 379.375Z" fill="white"/>
<path d="M-214 348.25C-179.62 348.25 -151.75 376.12 -151.75 410.5C-186.13 410.5 -214 382.63 -214 348.25Z" fill="white"/>
<path d="M35 348.25C35 382.63 7.12973 410.5 -27.25 410.5C-27.25 376.12 0.620286 348.25 35 348.25Z" fill="white"/>
<path d="M-151.75 286C-117.37 286 -89.5 313.87 -89.5 348.25C-123.88 348.25 -151.75 320.38 -151.75 286Z" fill="white"/>
<path d="M-27.25 286C-27.25 320.38 -55.1203 348.25 -89.5 348.25C-89.5 313.87 -61.6297 286 -27.25 286Z" fill="white"/>
<g opacity="0.5">
<path d="M408.5 472.75C408.5 507.13 380.63 535 346.25 535C346.25 500.62 374.12 472.75 408.5 472.75Z" fill="white"/>
<path d="M408.5 472.75C442.88 472.75 470.75 500.62 470.75 535C436.37 535 408.5 507.13 408.5 472.75Z" fill="white"/>
<path d="M346.25 410.5C346.25 444.88 318.38 472.75 284 472.75C284 438.37 311.87 410.5 346.25 410.5Z" fill="white"/>
<path d="M470.75 410.5C505.13 410.5 533 438.37 533 472.75C498.62 472.75 470.75 444.88 470.75 410.5Z" fill="white"/>
<path d="M408.5 379.375C425.69 379.375 439.625 393.31 439.625 410.5C439.625 427.69 425.69 441.625 408.5 441.625C391.31 441.625 377.375 427.69 377.375 410.5C377.375 393.31 391.31 379.375 408.5 379.375Z" fill="white"/>
<path d="M284 348.25C318.38 348.25 346.25 376.12 346.25 410.5C311.87 410.5 284 382.63 284 348.25Z" fill="white"/>
<path d="M533 348.25C533 382.63 505.13 410.5 470.75 410.5C470.75 376.12 498.62 348.25 533 348.25Z" fill="white"/>
<path d="M346.25 286C380.63 286 408.5 313.87 408.5 348.25C374.12 348.25 346.25 320.38 346.25 286Z" fill="white"/>
<path d="M470.75 286C470.75 320.38 442.88 348.25 408.5 348.25C408.5 313.87 436.37 286 470.75 286Z" fill="white"/>
</g>
<g opacity="0.5">
<path d="M657.5 472.75C657.5 507.13 629.63 535 595.25 535C595.25 500.62 623.12 472.75 657.5 472.75Z" fill="white"/>
<path d="M657.5 472.75C691.88 472.75 719.75 500.62 719.75 535C685.37 535 657.5 507.13 657.5 472.75Z" fill="white"/>
<path d="M595.25 410.5C595.25 444.88 567.38 472.75 533 472.75C533 438.37 560.87 410.5 595.25 410.5Z" fill="white"/>
<path d="M719.75 410.5C754.13 410.5 782 438.37 782 472.75C747.62 472.75 719.75 444.88 719.75 410.5Z" fill="white"/>
<path d="M657.5 379.375C674.69 379.375 688.625 393.31 688.625 410.5C688.625 427.69 674.69 441.625 657.5 441.625C640.31 441.625 626.375 427.69 626.375 410.5C626.375 393.31 640.31 379.375 657.5 379.375Z" fill="white"/>
<path d="M533 348.25C567.38 348.25 595.25 376.12 595.25 410.5C560.87 410.5 533 382.63 533 348.25Z" fill="white"/>
<path d="M782 348.25C782 382.63 754.13 410.5 719.75 410.5C719.75 376.12 747.62 348.25 782 348.25Z" fill="white"/>
<path d="M595.25 286C629.63 286 657.5 313.87 657.5 348.25C623.12 348.25 595.25 320.38 595.25 286Z" fill="white"/>
<path d="M719.75 286C719.75 320.38 691.88 348.25 657.5 348.25C657.5 313.87 685.37 286 719.75 286Z" fill="white"/>
</g>
<path d="M906.5 472.75C906.5 507.13 878.63 535 844.25 535C844.25 500.62 872.12 472.75 906.5 472.75Z" fill="white"/>
<path d="M906.5 472.75C940.88 472.75 968.75 500.62 968.75 535C934.37 535 906.5 507.13 906.5 472.75Z" fill="white"/>
<path d="M844.25 410.5C844.25 444.88 816.38 472.75 782 472.75C782 438.37 809.87 410.5 844.25 410.5Z" fill="white"/>
<path d="M968.75 410.5C1003.13 410.5 1031 438.37 1031 472.75C996.62 472.75 968.75 444.88 968.75 410.5Z" fill="white"/>
<path d="M906.5 379.375C923.69 379.375 937.625 393.31 937.625 410.5C937.625 427.69 923.69 441.625 906.5 441.625C889.31 441.625 875.375 427.69 875.375 410.5C875.375 393.31 889.31 379.375 906.5 379.375Z" fill="white"/>
<path d="M782 348.25C816.38 348.25 844.25 376.12 844.25 410.5C809.87 410.5 782 382.63 782 348.25Z" fill="white"/>
<path d="M1031 348.25C1031 382.63 1003.13 410.5 968.75 410.5C968.75 376.12 996.62 348.25 1031 348.25Z" fill="white"/>
<path d="M844.25 286C878.63 286 906.5 313.87 906.5 348.25C872.12 348.25 844.25 320.38 844.25 286Z" fill="white"/>
<path d="M968.75 286C968.75 320.38 940.88 348.25 906.5 348.25C906.5 313.87 934.37 286 968.75 286Z" fill="white"/>
<g opacity="0.3">
<path d="M906.5 223.75C906.5 258.13 878.63 286 844.25 286C844.25 251.62 872.12 223.75 906.5 223.75Z" fill="white"/>
<path d="M906.5 223.75C940.88 223.75 968.75 251.62 968.75 286C934.37 286 906.5 258.13 906.5 223.75Z" fill="white"/>
<path d="M844.25 161.5C844.25 195.88 816.38 223.75 782 223.75C782 189.37 809.87 161.5 844.25 161.5Z" fill="white"/>
<path d="M968.75 161.5C1003.13 161.5 1031 189.37 1031 223.75C996.62 223.75 968.75 195.88 968.75 161.5Z" fill="white"/>
<path d="M906.5 130.375C923.69 130.375 937.625 144.31 937.625 161.5C937.625 178.69 923.69 192.625 906.5 192.625C889.31 192.625 875.375 178.69 875.375 161.5C875.375 144.31 889.31 130.375 906.5 130.375Z" fill="white"/>
<path d="M782 99.25C816.38 99.25 844.25 127.12 844.25 161.5C809.87 161.5 782 133.63 782 99.25Z" fill="white"/>
<path d="M1031 99.25C1031 133.63 1003.13 161.5 968.75 161.5C968.75 127.12 996.62 99.25 1031 99.25Z" fill="white"/>
<path d="M844.25 37C878.63 37 906.5 64.8703 906.5 99.25C872.12 99.25 844.25 71.3797 844.25 37Z" fill="white"/>
<path d="M968.75 37C968.75 71.3797 940.88 99.25 906.5 99.25C906.5 64.8703 934.37 37 968.75 37Z" fill="white"/>
</g>
</g>
<defs>
<clipPath id="clip0_1161_31171">
<rect width="996" height="315" fill="white"/>
</clipPath>
</defs>
</svg>
