<svg width="996" height="315" viewBox="0 0 996 315" fill="none" xmlns="http://www.w3.org/2000/svg">
<g clip-path="url(#clip0_1157_37597)">
<rect width="996" height="315" fill="black"/>
<g opacity="0.5">
<path d="M190.625 -87.5C190.625 -70.3101 176.69 -56.375 159.5 -56.375C142.31 -56.375 128.375 -70.3101 128.375 -87.5C128.375 -104.69 142.31 -118.625 159.5 -118.625C176.69 -118.625 190.625 -104.69 190.625 -87.5Z" fill="white"/>
<path d="M97.25 -149.75C97.25 -184.13 125.12 -212 159.5 -212C193.88 -212 221.75 -184.13 221.75 -149.75H97.25Z" fill="white"/>
<path d="M221.75 -25.25C221.75 9.1297 193.88 37 159.5 37C125.12 37 97.25 9.1297 97.25 -25.25H221.75Z" fill="white"/>
<path d="M97.25 -25.25C62.8703 -25.25 35 -53.1203 35 -87.5C35 -121.88 62.8703 -149.75 97.25 -149.75L97.25 -25.25Z" fill="white"/>
<path d="M221.75 -149.75C256.13 -149.75 284 -121.88 284 -87.5C284 -53.1203 256.13 -25.25 221.75 -25.25V-149.75Z" fill="white"/>
<path d="M97.25 -149.75H35C35 -184.13 62.8703 -212 97.25 -212V-149.75Z" fill="white"/>
<path d="M221.75 -25.25H284C284 9.1297 256.13 37 221.75 37V-25.25Z" fill="white"/>
<path d="M97.25 -25.25L97.25 37C62.8703 37 35 9.1297 35 -25.25H97.25Z" fill="white"/>
<path d="M221.75 -149.75V-212C256.13 -212 284 -184.13 284 -149.75H221.75Z" fill="white"/>
</g>
<g opacity="0.2">
<path d="M688.625 -87.5C688.625 -70.3101 674.69 -56.375 657.5 -56.375C640.31 -56.375 626.375 -70.3101 626.375 -87.5C626.375 -104.69 640.31 -118.625 657.5 -118.625C674.69 -118.625 688.625 -104.69 688.625 -87.5Z" fill="white"/>
<path d="M595.25 -149.75C595.25 -184.13 623.12 -212 657.5 -212C691.88 -212 719.75 -184.13 719.75 -149.75H595.25Z" fill="white"/>
<path d="M719.75 -25.25C719.75 9.1297 691.88 37 657.5 37C623.12 37 595.25 9.1297 595.25 -25.25H719.75Z" fill="white"/>
<path d="M595.25 -25.25C560.87 -25.25 533 -53.1203 533 -87.5C533 -121.88 560.87 -149.75 595.25 -149.75L595.25 -25.25Z" fill="white"/>
<path d="M719.75 -149.75C754.13 -149.75 782 -121.88 782 -87.5C782 -53.1203 754.13 -25.25 719.75 -25.25V-149.75Z" fill="white"/>
<path d="M595.25 -149.75H533C533 -184.13 560.87 -212 595.25 -212V-149.75Z" fill="white"/>
<path d="M719.75 -25.25H782C782 9.1297 754.13 37 719.75 37V-25.25Z" fill="white"/>
<path d="M595.25 -25.25L595.25 37C560.87 37 533 9.1297 533 -25.25H595.25Z" fill="white"/>
<path d="M719.75 -149.75V-212C754.13 -212 782 -184.13 782 -149.75H719.75Z" fill="white"/>
</g>
<path d="M-58.375 -87.5C-58.375 -70.3101 -72.3101 -56.375 -89.5 -56.375C-106.69 -56.375 -120.625 -70.3101 -120.625 -87.5C-120.625 -104.69 -106.69 -118.625 -89.5 -118.625C-72.3101 -118.625 -58.375 -104.69 -58.375 -87.5Z" fill="white"/>
<path d="M-151.75 -149.75C-151.75 -184.13 -123.88 -212 -89.5 -212C-55.1203 -212 -27.25 -184.13 -27.25 -149.75H-151.75Z" fill="white"/>
<path d="M-27.25 -25.25C-27.25 9.1297 -55.1203 37 -89.5 37C-123.88 37 -151.75 9.1297 -151.75 -25.25H-27.25Z" fill="white"/>
<path d="M-151.75 -25.25C-186.13 -25.25 -214 -53.1203 -214 -87.5C-214 -121.88 -186.13 -149.75 -151.75 -149.75L-151.75 -25.25Z" fill="white"/>
<path d="M-27.25 -149.75C7.12972 -149.75 35 -121.88 35 -87.5C35 -53.1203 7.12972 -25.25 -27.25 -25.25V-149.75Z" fill="white"/>
<path d="M-151.75 -149.75H-214C-214 -184.13 -186.13 -212 -151.75 -212V-149.75Z" fill="white"/>
<path d="M-27.25 -25.25H35C35 9.1297 7.12972 37 -27.25 37V-25.25Z" fill="white"/>
<path d="M-151.75 -25.25L-151.75 37C-186.13 37 -214 9.1297 -214 -25.25H-151.75Z" fill="white"/>
<path d="M-27.25 -149.75V-212C7.12972 -212 35 -184.13 35 -149.75H-27.25Z" fill="white"/>
<g opacity="0.5">
<path d="M937.625 -87.5C937.625 -70.3101 923.69 -56.375 906.5 -56.375C889.31 -56.375 875.375 -70.3101 875.375 -87.5C875.375 -104.69 889.31 -118.625 906.5 -118.625C923.69 -118.625 937.625 -104.69 937.625 -87.5Z" fill="white"/>
<path d="M844.25 -149.75C844.25 -184.13 872.12 -212 906.5 -212C940.88 -212 968.75 -184.13 968.75 -149.75H844.25Z" fill="white"/>
<path d="M968.75 -25.25C968.75 9.1297 940.88 37 906.5 37C872.12 37 844.25 9.1297 844.25 -25.25H968.75Z" fill="white"/>
<path d="M844.25 -25.25C809.87 -25.25 782 -53.1203 782 -87.5C782 -121.88 809.87 -149.75 844.25 -149.75L844.25 -25.25Z" fill="white"/>
<path d="M968.75 -149.75C1003.13 -149.75 1031 -121.88 1031 -87.5C1031 -53.1203 1003.13 -25.25 968.75 -25.25V-149.75Z" fill="white"/>
<path d="M844.25 -149.75H782C782 -184.13 809.87 -212 844.25 -212V-149.75Z" fill="white"/>
<path d="M968.75 -25.25H1031C1031 9.1297 1003.13 37 968.75 37V-25.25Z" fill="white"/>
<path d="M844.25 -25.25L844.25 37C809.87 37 782 9.1297 782 -25.25H844.25Z" fill="white"/>
<path d="M968.75 -149.75V-212C1003.13 -212 1031 -184.13 1031 -149.75H968.75Z" fill="white"/>
</g>
<path d="M-58.375 161.5C-58.375 178.69 -72.3101 192.625 -89.5 192.625C-106.69 192.625 -120.625 178.69 -120.625 161.5C-120.625 144.31 -106.69 130.375 -89.5 130.375C-72.3101 130.375 -58.375 144.31 -58.375 161.5Z" fill="white"/>
<path d="M-151.75 99.25C-151.75 64.8703 -123.88 37 -89.5 37C-55.1203 37 -27.25 64.8703 -27.25 99.25H-151.75Z" fill="white"/>
<path d="M-27.25 223.75C-27.25 258.13 -55.1203 286 -89.5 286C-123.88 286 -151.75 258.13 -151.75 223.75H-27.25Z" fill="white"/>
<path d="M-151.75 223.75C-186.13 223.75 -214 195.88 -214 161.5C-214 127.12 -186.13 99.25 -151.75 99.25L-151.75 223.75Z" fill="white"/>
<path d="M-27.25 99.25C7.12972 99.25 35 127.12 35 161.5C35 195.88 7.12972 223.75 -27.25 223.75V99.25Z" fill="white"/>
<path d="M-151.75 99.25H-214C-214 64.8703 -186.13 37 -151.75 37V99.25Z" fill="white"/>
<path d="M-27.25 223.75H35C35 258.13 7.12972 286 -27.25 286V223.75Z" fill="white"/>
<path d="M-151.75 223.75L-151.75 286C-186.13 286 -214 258.13 -214 223.75H-151.75Z" fill="white"/>
<path d="M-27.25 99.25V37C7.12972 37 35 64.8703 35 99.25H-27.25Z" fill="white"/>
<g opacity="0.3">
<path d="M937.625 161.5C937.625 178.69 923.69 192.625 906.5 192.625C889.31 192.625 875.375 178.69 875.375 161.5C875.375 144.31 889.31 130.375 906.5 130.375C923.69 130.375 937.625 144.31 937.625 161.5Z" fill="white"/>
<path d="M844.25 99.25C844.25 64.8703 872.12 37 906.5 37C940.88 37 968.75 64.8703 968.75 99.25H844.25Z" fill="white"/>
<path d="M968.75 223.75C968.75 258.13 940.88 286 906.5 286C872.12 286 844.25 258.13 844.25 223.75H968.75Z" fill="white"/>
<path d="M844.25 223.75C809.87 223.75 782 195.88 782 161.5C782 127.12 809.87 99.25 844.25 99.25L844.25 223.75Z" fill="white"/>
<path d="M968.75 99.25C1003.13 99.25 1031 127.12 1031 161.5C1031 195.88 1003.13 223.75 968.75 223.75V99.25Z" fill="white"/>
<path d="M844.25 99.25H782C782 64.8703 809.87 37 844.25 37V99.25Z" fill="white"/>
<path d="M968.75 223.75H1031C1031 258.13 1003.13 286 968.75 286V223.75Z" fill="white"/>
<path d="M844.25 223.75L844.25 286C809.87 286 782 258.13 782 223.75H844.25Z" fill="white"/>
<path d="M968.75 99.25V37C1003.13 37 1031 64.8703 1031 99.25H968.75Z" fill="white"/>
</g>
<path d="M-58.375 410.5C-58.375 427.69 -72.3101 441.625 -89.5 441.625C-106.69 441.625 -120.625 427.69 -120.625 410.5C-120.625 393.31 -106.69 379.375 -89.5 379.375C-72.3101 379.375 -58.375 393.31 -58.375 410.5Z" fill="white"/>
<path d="M-151.75 348.25C-151.75 313.87 -123.88 286 -89.5 286C-55.1203 286 -27.25 313.87 -27.25 348.25H-151.75Z" fill="white"/>
<path d="M-27.25 472.75C-27.25 507.13 -55.1203 535 -89.5 535C-123.88 535 -151.75 507.13 -151.75 472.75H-27.25Z" fill="white"/>
<path d="M-151.75 472.75C-186.13 472.75 -214 444.88 -214 410.5C-214 376.12 -186.13 348.25 -151.75 348.25L-151.75 472.75Z" fill="white"/>
<path d="M-27.25 348.25C7.12972 348.25 35 376.12 35 410.5C35 444.88 7.12972 472.75 -27.25 472.75V348.25Z" fill="white"/>
<path d="M-151.75 348.25H-214C-214 313.87 -186.13 286 -151.75 286V348.25Z" fill="white"/>
<path d="M-27.25 472.75H35C35 507.13 7.12972 535 -27.25 535V472.75Z" fill="white"/>
<path d="M-151.75 472.75L-151.75 535C-186.13 535 -214 507.13 -214 472.75H-151.75Z" fill="white"/>
<path d="M-27.25 348.25V286C7.12972 286 35 313.87 35 348.25H-27.25Z" fill="white"/>
<g opacity="0.5">
<path d="M439.625 410.5C439.625 427.69 425.69 441.625 408.5 441.625C391.31 441.625 377.375 427.69 377.375 410.5C377.375 393.31 391.31 379.375 408.5 379.375C425.69 379.375 439.625 393.31 439.625 410.5Z" fill="white"/>
<path d="M346.25 348.25C346.25 313.87 374.12 286 408.5 286C442.88 286 470.75 313.87 470.75 348.25H346.25Z" fill="white"/>
<path d="M470.75 472.75C470.75 507.13 442.88 535 408.5 535C374.12 535 346.25 507.13 346.25 472.75H470.75Z" fill="white"/>
<path d="M346.25 472.75C311.87 472.75 284 444.88 284 410.5C284 376.12 311.87 348.25 346.25 348.25L346.25 472.75Z" fill="white"/>
<path d="M470.75 348.25C505.13 348.25 533 376.12 533 410.5C533 444.88 505.13 472.75 470.75 472.75V348.25Z" fill="white"/>
<path d="M346.25 348.25H284C284 313.87 311.87 286 346.25 286V348.25Z" fill="white"/>
<path d="M470.75 472.75H533C533 507.13 505.13 535 470.75 535V472.75Z" fill="white"/>
<path d="M346.25 472.75L346.25 535C311.87 535 284 507.13 284 472.75H346.25Z" fill="white"/>
<path d="M470.75 348.25V286C505.13 286 533 313.87 533 348.25H470.75Z" fill="white"/>
</g>
<g opacity="0.5">
<path d="M688.625 410.5C688.625 427.69 674.69 441.625 657.5 441.625C640.31 441.625 626.375 427.69 626.375 410.5C626.375 393.31 640.31 379.375 657.5 379.375C674.69 379.375 688.625 393.31 688.625 410.5Z" fill="white"/>
<path d="M595.25 348.25C595.25 313.87 623.12 286 657.5 286C691.88 286 719.75 313.87 719.75 348.25H595.25Z" fill="white"/>
<path d="M719.75 472.75C719.75 507.13 691.88 535 657.5 535C623.12 535 595.25 507.13 595.25 472.75H719.75Z" fill="white"/>
<path d="M595.25 472.75C560.87 472.75 533 444.88 533 410.5C533 376.12 560.87 348.25 595.25 348.25L595.25 472.75Z" fill="white"/>
<path d="M719.75 348.25C754.13 348.25 782 376.12 782 410.5C782 444.88 754.13 472.75 719.75 472.75V348.25Z" fill="white"/>
<path d="M595.25 348.25H533C533 313.87 560.87 286 595.25 286V348.25Z" fill="white"/>
<path d="M719.75 472.75H782C782 507.13 754.13 535 719.75 535V472.75Z" fill="white"/>
<path d="M595.25 472.75L595.25 535C560.87 535 533 507.13 533 472.75H595.25Z" fill="white"/>
<path d="M719.75 348.25V286C754.13 286 782 313.87 782 348.25H719.75Z" fill="white"/>
</g>
<path d="M937.625 410.5C937.625 427.69 923.69 441.625 906.5 441.625C889.31 441.625 875.375 427.69 875.375 410.5C875.375 393.31 889.31 379.375 906.5 379.375C923.69 379.375 937.625 393.31 937.625 410.5Z" fill="white"/>
<path d="M844.25 348.25C844.25 313.87 872.12 286 906.5 286C940.88 286 968.75 313.87 968.75 348.25H844.25Z" fill="white"/>
<path d="M968.75 472.75C968.75 507.13 940.88 535 906.5 535C872.12 535 844.25 507.13 844.25 472.75H968.75Z" fill="white"/>
<path d="M844.25 472.75C809.87 472.75 782 444.88 782 410.5C782 376.12 809.87 348.25 844.25 348.25L844.25 472.75Z" fill="white"/>
<path d="M968.75 348.25C1003.13 348.25 1031 376.12 1031 410.5C1031 444.88 1003.13 472.75 968.75 472.75V348.25Z" fill="white"/>
<path d="M844.25 348.25H782C782 313.87 809.87 286 844.25 286V348.25Z" fill="white"/>
<path d="M968.75 472.75H1031C1031 507.13 1003.13 535 968.75 535V472.75Z" fill="white"/>
<path d="M844.25 472.75L844.25 535C809.87 535 782 507.13 782 472.75H844.25Z" fill="white"/>
<path d="M968.75 348.25V286C1003.13 286 1031 313.87 1031 348.25H968.75Z" fill="white"/>
</g>
<defs>
<clipPath id="clip0_1157_37597">
<rect width="996" height="315" fill="white"/>
</clipPath>
</defs>
</svg>
