<svg width="996" height="315" viewBox="0 0 996 315" fill="none" xmlns="http://www.w3.org/2000/svg">
<g clip-path="url(#clip0_1161_29490)">
<rect width="996" height="315" fill="black"/>
<g opacity="0.5">
<path d="M159.5 37C228.259 37 284 -18.7406 284 -87.5C215.241 -87.5 159.5 -31.7595 159.5 37Z" fill="white"/>
<path d="M159.5 37C90.7406 37 35 -18.7406 35 -87.5C103.759 -87.5 159.5 -31.7595 159.5 37Z" fill="white"/>
</g>
<path d="M657.5 37C726.259 37 782 -18.7406 782 -87.5C713.241 -87.5 657.5 -31.7595 657.5 37Z" fill="white"/>
<path d="M657.5 37C588.741 37 533 -18.7406 533 -87.5C601.759 -87.5 657.5 -31.7595 657.5 37Z" fill="white"/>
<g opacity="0.5">
<path d="M906.5 37C975.259 37 1031 -18.7406 1031 -87.5C962.241 -87.5 906.5 -31.7595 906.5 37Z" fill="white"/>
<path d="M906.5 37C837.741 37 782 -18.7406 782 -87.5C850.759 -87.5 906.5 -31.7595 906.5 37Z" fill="white"/>
</g>
<path d="M-89.5 286C-20.7406 286 35 230.259 35 161.5C-33.7594 161.5 -89.5 217.241 -89.5 286Z" fill="white"/>
<path d="M-89.5 161.5C-20.7406 161.5 35 105.759 35 37C-33.7594 37 -89.5 92.7405 -89.5 161.5Z" fill="white"/>
<path d="M-89.5 37C-20.7406 37 35 -18.7406 35 -87.5C-33.7594 -87.5 -89.5 -31.7595 -89.5 37Z" fill="white"/>
<path d="M-89.5 410.5C-20.7406 410.5 35 354.759 35 286C-33.7594 286 -89.5 341.741 -89.5 410.5Z" fill="white"/>
<g opacity="0.5">
<path d="M408.5 410.5C477.259 410.5 533 354.759 533 286C464.241 286 408.5 341.741 408.5 410.5Z" fill="white"/>
<path d="M408.5 410.5C339.741 410.5 284 354.759 284 286C352.759 286 408.5 341.741 408.5 410.5Z" fill="white"/>
<path d="M408.5 317.125C391.31 317.125 377.375 303.19 377.375 286L439.625 286C439.625 303.19 425.69 317.125 408.5 317.125Z" fill="white"/>
</g>
<g opacity="0.5">
<path d="M657.5 410.5C726.259 410.5 782 354.759 782 286C713.241 286 657.5 341.741 657.5 410.5Z" fill="white"/>
<path d="M657.5 410.5C588.741 410.5 533 354.759 533 286C601.759 286 657.5 341.741 657.5 410.5Z" fill="white"/>
<path d="M657.5 317.125C640.31 317.125 626.375 303.19 626.375 286L688.625 286C688.625 303.19 674.69 317.125 657.5 317.125Z" fill="white"/>
</g>
<path d="M906.5 410.5C975.259 410.5 1031 354.759 1031 286C962.241 286 906.5 341.741 906.5 410.5Z" fill="white"/>
<path d="M906.5 410.5C837.741 410.5 782 354.759 782 286C850.759 286 906.5 341.741 906.5 410.5Z" fill="white"/>
<path d="M906.5 317.125C889.31 317.125 875.375 303.19 875.375 286L937.625 286C937.625 303.19 923.69 317.125 906.5 317.125Z" fill="white"/>
<g opacity="0.3">
<path d="M906.5 286C975.259 286 1031 230.259 1031 161.5C962.241 161.5 906.5 217.241 906.5 286Z" fill="white"/>
<path d="M906.5 286C837.741 286 782 230.259 782 161.5C850.759 161.5 906.5 217.241 906.5 286Z" fill="white"/>
<path d="M906.5 161.5C975.259 161.5 1031 105.759 1031 37C962.241 37 906.5 92.7405 906.5 161.5Z" fill="white"/>
<path d="M906.5 161.5C837.741 161.5 782 105.759 782 37C850.759 37 906.5 92.7405 906.5 161.5Z" fill="white"/>
<path d="M906.5 68.125C889.31 68.125 875.375 54.1899 875.375 37L937.625 37C937.625 54.1899 923.69 68.125 906.5 68.125Z" fill="white"/>
</g>
</g>
<defs>
<clipPath id="clip0_1161_29490">
<rect width="996" height="315" fill="white"/>
</clipPath>
</defs>
</svg>
