<svg width="996" height="315" viewBox="0 0 996 315" fill="none" xmlns="http://www.w3.org/2000/svg">
<g clip-path="url(#clip0_1161_31531)">
<rect width="996" height="315" fill="black"/>
<g opacity="0.5">
<path d="M97.25 -87.5C131.63 -87.5 159.5 -59.6297 159.5 -25.25C159.5 9.12972 131.63 37 97.25 37C62.8703 37 35 9.12972 35 -25.25C35 -59.6297 62.8703 -87.5 97.25 -87.5ZM221.75 -87.5C256.13 -87.5 284 -59.6297 284 -25.25C284 9.12972 256.13 37 221.75 37C187.37 37 159.5 9.12972 159.5 -25.25C159.5 -59.6297 187.37 -87.5 221.75 -87.5ZM97.25 -212C131.63 -212 159.5 -184.13 159.5 -149.75C159.5 -115.37 131.63 -87.5 97.25 -87.5C62.8703 -87.5 35 -115.37 35 -149.75C35 -184.13 62.8703 -212 97.25 -212ZM221.75 -212C256.13 -212 284 -184.13 284 -149.75C284 -115.37 256.13 -87.5 221.75 -87.5C187.37 -87.5 159.5 -115.37 159.5 -149.75C159.5 -184.13 187.37 -212 221.75 -212Z" fill="white"/>
</g>
<path d="M595.25 -87.5C629.63 -87.5 657.5 -59.6297 657.5 -25.25C657.5 9.12972 629.63 37 595.25 37C560.87 37 533 9.12972 533 -25.25C533 -59.6297 560.87 -87.5 595.25 -87.5ZM719.75 -87.5C754.13 -87.5 782 -59.6297 782 -25.25C782 9.12972 754.13 37 719.75 37C685.37 37 657.5 9.12972 657.5 -25.25C657.5 -59.6297 685.37 -87.5 719.75 -87.5ZM595.25 -212C629.63 -212 657.5 -184.13 657.5 -149.75C657.5 -115.37 629.63 -87.5 595.25 -87.5C560.87 -87.5 533 -115.37 533 -149.75C533 -184.13 560.87 -212 595.25 -212ZM719.75 -212C754.13 -212 782 -184.13 782 -149.75C782 -115.37 754.13 -87.5 719.75 -87.5C685.37 -87.5 657.5 -115.37 657.5 -149.75C657.5 -184.13 685.37 -212 719.75 -212Z" fill="white"/>
<g opacity="0.5">
<path d="M844.25 -87.5C878.63 -87.5 906.5 -59.6297 906.5 -25.25C906.5 9.12972 878.63 37 844.25 37C809.87 37 782 9.12972 782 -25.25C782 -59.6297 809.87 -87.5 844.25 -87.5ZM968.75 -87.5C1003.13 -87.5 1031 -59.6297 1031 -25.25C1031 9.12972 1003.13 37 968.75 37C934.37 37 906.5 9.12972 906.5 -25.25C906.5 -59.6297 934.37 -87.5 968.75 -87.5ZM844.25 -212C878.63 -212 906.5 -184.13 906.5 -149.75C906.5 -115.37 878.63 -87.5 844.25 -87.5C809.87 -87.5 782 -115.37 782 -149.75C782 -184.13 809.87 -212 844.25 -212ZM968.75 -212C1003.13 -212 1031 -184.13 1031 -149.75C1031 -115.37 1003.13 -87.5 968.75 -87.5C934.37 -87.5 906.5 -115.37 906.5 -149.75C906.5 -184.13 934.37 -212 968.75 -212Z" fill="white"/>
</g>
<path d="M-151.75 161.5C-117.37 161.5 -89.5 189.37 -89.5 223.75C-89.5 258.13 -117.37 286 -151.75 286C-186.13 286 -214 258.13 -214 223.75C-214 189.37 -186.13 161.5 -151.75 161.5ZM-27.25 161.5C7.12972 161.5 35 189.37 35 223.75C35 258.13 7.12972 286 -27.25 286C-61.6297 286 -89.5 258.13 -89.5 223.75C-89.5 189.37 -61.6297 161.5 -27.25 161.5ZM-151.75 37C-117.37 37 -89.5 64.8703 -89.5 99.25C-89.5 133.63 -117.37 161.5 -151.75 161.5C-186.13 161.5 -214 133.63 -214 99.25C-214 64.8703 -186.13 37 -151.75 37ZM-27.25 37C7.12972 37 35 64.8703 35 99.25C35 133.63 7.12972 161.5 -27.25 161.5C-61.6297 161.5 -89.5 133.63 -89.5 99.25C-89.5 64.8703 -61.6297 37 -27.25 37Z" fill="white"/>
<path d="M-151.75 -87.5C-117.37 -87.5 -89.5 -59.6297 -89.5 -25.25C-89.5 9.12972 -117.37 37 -151.75 37C-186.13 37 -214 9.12972 -214 -25.25C-214 -59.6297 -186.13 -87.5 -151.75 -87.5ZM-27.25 -87.5C7.12972 -87.5 35 -59.6297 35 -25.25C35 9.12972 7.12972 37 -27.25 37C-61.6297 37 -89.5 9.12972 -89.5 -25.25C-89.5 -59.6297 -61.6297 -87.5 -27.25 -87.5ZM-151.75 -212C-117.37 -212 -89.5 -184.13 -89.5 -149.75C-89.5 -115.37 -117.37 -87.5 -151.75 -87.5C-186.13 -87.5 -214 -115.37 -214 -149.75C-214 -184.13 -186.13 -212 -151.75 -212ZM-27.25 -212C7.12972 -212 35 -184.13 35 -149.75C35 -115.37 7.12972 -87.5 -27.25 -87.5C-61.6297 -87.5 -89.5 -115.37 -89.5 -149.75C-89.5 -184.13 -61.6297 -212 -27.25 -212Z" fill="white"/>
<path d="M-151.75 410.5C-117.37 410.5 -89.5 438.37 -89.5 472.75C-89.5 507.13 -117.37 535 -151.75 535C-186.13 535 -214 507.13 -214 472.75C-214 438.37 -186.13 410.5 -151.75 410.5ZM-27.25 410.5C7.12972 410.5 35 438.37 35 472.75C35 507.13 7.12972 535 -27.25 535C-61.6297 535 -89.5 507.13 -89.5 472.75C-89.5 438.37 -61.6297 410.5 -27.25 410.5ZM-151.75 286C-117.37 286 -89.5 313.87 -89.5 348.25C-89.5 382.63 -117.37 410.5 -151.75 410.5C-186.13 410.5 -214 382.63 -214 348.25C-214 313.87 -186.13 286 -151.75 286ZM-27.25 286C7.12972 286 35 313.87 35 348.25C35 382.63 7.12972 410.5 -27.25 410.5C-61.6297 410.5 -89.5 382.63 -89.5 348.25C-89.5 313.87 -61.6297 286 -27.25 286Z" fill="white"/>
<g opacity="0.5">
<path d="M346.25 410.5C380.63 410.5 408.5 438.37 408.5 472.75C408.5 507.13 380.63 535 346.25 535C311.87 535 284 507.13 284 472.75C284 438.37 311.87 410.5 346.25 410.5ZM470.75 410.5C505.13 410.5 533 438.37 533 472.75C533 507.13 505.13 535 470.75 535C436.37 535 408.5 507.13 408.5 472.75C408.5 438.37 436.37 410.5 470.75 410.5ZM346.25 286C380.63 286 408.5 313.87 408.5 348.25C408.5 382.63 380.63 410.5 346.25 410.5C311.87 410.5 284 382.63 284 348.25C284 313.87 311.87 286 346.25 286ZM470.75 286C505.13 286 533 313.87 533 348.25C533 382.63 505.13 410.5 470.75 410.5C436.37 410.5 408.5 382.63 408.5 348.25C408.5 313.87 436.37 286 470.75 286Z" fill="white"/>
</g>
<g opacity="0.5">
<path d="M595.25 410.5C629.63 410.5 657.5 438.37 657.5 472.75C657.5 507.13 629.63 535 595.25 535C560.87 535 533 507.13 533 472.75C533 438.37 560.87 410.5 595.25 410.5ZM719.75 410.5C754.13 410.5 782 438.37 782 472.75C782 507.13 754.13 535 719.75 535C685.37 535 657.5 507.13 657.5 472.75C657.5 438.37 685.37 410.5 719.75 410.5ZM595.25 286C629.63 286 657.5 313.87 657.5 348.25C657.5 382.63 629.63 410.5 595.25 410.5C560.87 410.5 533 382.63 533 348.25C533 313.87 560.87 286 595.25 286ZM719.75 286C754.13 286 782 313.87 782 348.25C782 382.63 754.13 410.5 719.75 410.5C685.37 410.5 657.5 382.63 657.5 348.25C657.5 313.87 685.37 286 719.75 286Z" fill="white"/>
</g>
<path d="M844.25 410.5C878.63 410.5 906.5 438.37 906.5 472.75C906.5 507.13 878.63 535 844.25 535C809.87 535 782 507.13 782 472.75C782 438.37 809.87 410.5 844.25 410.5ZM968.75 410.5C1003.13 410.5 1031 438.37 1031 472.75C1031 507.13 1003.13 535 968.75 535C934.37 535 906.5 507.13 906.5 472.75C906.5 438.37 934.37 410.5 968.75 410.5ZM844.25 286C878.63 286 906.5 313.87 906.5 348.25C906.5 382.63 878.63 410.5 844.25 410.5C809.87 410.5 782 382.63 782 348.25C782 313.87 809.87 286 844.25 286ZM968.75 286C1003.13 286 1031 313.87 1031 348.25C1031 382.63 1003.13 410.5 968.75 410.5C934.37 410.5 906.5 382.63 906.5 348.25C906.5 313.87 934.37 286 968.75 286Z" fill="white"/>
<g opacity="0.3">
<path d="M844.25 161.5C878.63 161.5 906.5 189.37 906.5 223.75C906.5 258.13 878.63 286 844.25 286C809.87 286 782 258.13 782 223.75C782 189.37 809.87 161.5 844.25 161.5ZM968.75 161.5C1003.13 161.5 1031 189.37 1031 223.75C1031 258.13 1003.13 286 968.75 286C934.37 286 906.5 258.13 906.5 223.75C906.5 189.37 934.37 161.5 968.75 161.5ZM844.25 37C878.63 37 906.5 64.8703 906.5 99.25C906.5 133.63 878.63 161.5 844.25 161.5C809.87 161.5 782 133.63 782 99.25C782 64.8703 809.87 37 844.25 37ZM968.75 37C1003.13 37 1031 64.8703 1031 99.25C1031 133.63 1003.13 161.5 968.75 161.5C934.37 161.5 906.5 133.63 906.5 99.25C906.5 64.8703 934.37 37 968.75 37Z" fill="white"/>
</g>
</g>
<defs>
<clipPath id="clip0_1161_31531">
<rect width="996" height="315" fill="white"/>
</clipPath>
</defs>
</svg>
