<svg width="996" height="315" viewBox="0 0 996 315" fill="none" xmlns="http://www.w3.org/2000/svg">
<g clip-path="url(#clip0_1161_32676)">
<rect width="996" height="315" fill="black"/>
<g opacity="0.5">
<path d="M190.625 -162.642L225.526 -197.543L269.544 -153.526L234.643 -118.625H284V-56.375H234.643L269.544 -21.4736L225.526 22.5439L190.625 -12.3574V37H128.375V-12.3574L93.4736 22.5439L49.457 -21.4736L84.3584 -56.375H35V-118.625H84.3574L49.4561 -153.526L93.4736 -197.544L128.375 -162.643V-212H190.625V-162.642ZM159.5 -149.75C159.5 -115.37 131.63 -87.5 97.25 -87.5C131.63 -87.5 159.5 -59.6297 159.5 -25.25L159.521 -26.8555C160.372 -60.493 187.907 -87.5 221.75 -87.5C187.37 -87.5 159.5 -115.37 159.5 -149.75Z" fill="white"/>
</g>
<path d="M688.625 -162.642L723.526 -197.543L767.544 -153.526L732.643 -118.625H782V-56.375H732.643L767.544 -21.4736L723.526 22.5439L688.625 -12.3574V37H626.375V-12.3574L591.474 22.5439L547.457 -21.4736L582.358 -56.375H533V-118.625H582.357L547.456 -153.526L591.474 -197.544L626.375 -162.643V-212H688.625V-162.642ZM657.5 -149.75C657.5 -115.37 629.63 -87.5 595.25 -87.5C629.63 -87.5 657.5 -59.6297 657.5 -25.25L657.521 -26.8555C658.372 -60.493 685.907 -87.5 719.75 -87.5C685.37 -87.5 657.5 -115.37 657.5 -149.75Z" fill="white"/>
<g opacity="0.5">
<path d="M937.625 -162.642L972.526 -197.543L1016.54 -153.526L981.643 -118.625H1031V-56.375H981.643L1016.54 -21.4736L972.526 22.5439L937.625 -12.3574V37H875.375V-12.3574L840.474 22.5439L796.457 -21.4736L831.358 -56.375H782V-118.625H831.357L796.456 -153.526L840.474 -197.544L875.375 -162.643V-212H937.625V-162.642ZM906.5 -149.75C906.5 -115.37 878.63 -87.5 844.25 -87.5C878.63 -87.5 906.5 -59.6297 906.5 -25.25L906.521 -26.8555C907.372 -60.493 934.907 -87.5 968.75 -87.5C934.37 -87.5 906.5 -115.37 906.5 -149.75Z" fill="white"/>
</g>
<path d="M-58.375 86.3584L-23.4736 51.457L20.5439 95.4736L-14.3574 130.375H35V192.625H-14.3574L20.5439 227.526L-23.4736 271.544L-58.375 236.643V286H-120.625V236.643L-155.526 271.544L-199.543 227.526L-164.642 192.625H-214V130.375H-164.643L-199.544 95.4736L-155.526 51.4561L-120.625 86.3574V37H-58.375V86.3584ZM-89.5 99.25C-89.5 133.63 -117.37 161.5 -151.75 161.5C-117.37 161.5 -89.5 189.37 -89.5 223.75L-89.4795 222.145C-88.6277 188.507 -61.0928 161.5 -27.25 161.5C-61.6297 161.5 -89.5 133.63 -89.5 99.25Z" fill="white"/>
<path d="M-58.375 -162.642L-23.4736 -197.543L20.5439 -153.526L-14.3574 -118.625H35V-56.375H-14.3574L20.5439 -21.4736L-23.4736 22.5439L-58.375 -12.3574V37H-120.625V-12.3574L-155.526 22.5439L-199.543 -21.4736L-164.642 -56.375H-214V-118.625H-164.643L-199.544 -153.526L-155.526 -197.544L-120.625 -162.643V-212H-58.375V-162.642ZM-89.5 -149.75C-89.5 -115.37 -117.37 -87.5 -151.75 -87.5C-117.37 -87.5 -89.5 -59.6297 -89.5 -25.25L-89.4795 -26.8555C-88.6277 -60.493 -61.0928 -87.5 -27.25 -87.5C-61.6297 -87.5 -89.5 -115.37 -89.5 -149.75Z" fill="white"/>
<path d="M-58.375 335.358L-23.4736 300.457L20.5439 344.474L-14.3574 379.375H35V441.625H-14.3574L20.5439 476.526L-23.4736 520.544L-58.375 485.643V535H-120.625V485.643L-155.526 520.544L-199.543 476.526L-164.642 441.625H-214V379.375H-164.643L-199.544 344.474L-155.526 300.456L-120.625 335.357V286H-58.375V335.358ZM-89.5 348.25C-89.5 382.63 -117.37 410.5 -151.75 410.5C-117.37 410.5 -89.5 438.37 -89.5 472.75L-89.4795 471.145C-88.6277 437.507 -61.0928 410.5 -27.25 410.5C-61.6297 410.5 -89.5 382.63 -89.5 348.25Z" fill="white"/>
<g opacity="0.5">
<path d="M439.625 335.358L474.526 300.457L518.544 344.474L483.643 379.375H533V441.625H483.643L518.544 476.526L474.526 520.544L439.625 485.643V535H377.375V485.643L342.474 520.544L298.457 476.526L333.358 441.625H284V379.375H333.357L298.456 344.474L342.474 300.456L377.375 335.357V286H439.625V335.358ZM408.5 348.25C408.5 382.63 380.63 410.5 346.25 410.5C380.63 410.5 408.5 438.37 408.5 472.75L408.521 471.145C409.372 437.507 436.907 410.5 470.75 410.5C436.37 410.5 408.5 382.63 408.5 348.25Z" fill="white"/>
</g>
<g opacity="0.5">
<path d="M688.625 335.358L723.526 300.457L767.544 344.474L732.643 379.375H782V441.625H732.643L767.544 476.526L723.526 520.544L688.625 485.643V535H626.375V485.643L591.474 520.544L547.457 476.526L582.358 441.625H533V379.375H582.357L547.456 344.474L591.474 300.456L626.375 335.357V286H688.625V335.358ZM657.5 348.25C657.5 382.63 629.63 410.5 595.25 410.5C629.63 410.5 657.5 438.37 657.5 472.75L657.521 471.145C658.372 437.507 685.907 410.5 719.75 410.5C685.37 410.5 657.5 382.63 657.5 348.25Z" fill="white"/>
</g>
<path d="M937.625 335.358L972.526 300.457L1016.54 344.474L981.643 379.375H1031V441.625H981.643L1016.54 476.526L972.526 520.544L937.625 485.643V535H875.375V485.643L840.474 520.544L796.457 476.526L831.358 441.625H782V379.375H831.357L796.456 344.474L840.474 300.456L875.375 335.357V286H937.625V335.358ZM906.5 348.25C906.5 382.63 878.63 410.5 844.25 410.5C878.63 410.5 906.5 438.37 906.5 472.75L906.521 471.145C907.372 437.507 934.907 410.5 968.75 410.5C934.37 410.5 906.5 382.63 906.5 348.25Z" fill="white"/>
<g opacity="0.3">
<path d="M937.625 86.3584L972.526 51.457L1016.54 95.4736L981.643 130.375H1031V192.625H981.643L1016.54 227.526L972.526 271.544L937.625 236.643V286H875.375V236.643L840.474 271.544L796.457 227.526L831.358 192.625H782V130.375H831.357L796.456 95.4736L840.474 51.4561L875.375 86.3574V37H937.625V86.3584ZM906.5 99.25C906.5 133.63 878.63 161.5 844.25 161.5C878.63 161.5 906.5 189.37 906.5 223.75L906.521 222.145C907.372 188.507 934.907 161.5 968.75 161.5C934.37 161.5 906.5 133.63 906.5 99.25Z" fill="white"/>
</g>
</g>
<defs>
<clipPath id="clip0_1161_32676">
<rect width="996" height="315" fill="white"/>
</clipPath>
</defs>
</svg>
