<svg width="996" height="315" viewBox="0 0 996 315" fill="none" xmlns="http://www.w3.org/2000/svg">
<g clip-path="url(#clip0_1161_29083)">
<rect width="996" height="315" fill="black"/>
<g opacity="0.5">
<path d="M284 -25.25C249.62 -25.25 221.75 2.62027 221.75 37H159.5C159.5 -31.7594 215.241 -87.5 284 -87.5V-25.25Z" fill="white"/>
<path d="M283.997 -167.98L79.0203 36.9975L35.0025 -7.01776L239.98 -211.997L283.997 -167.98Z" fill="white"/>
<path d="M159.5 -212C159.5 -143.241 103.759 -87.5 35 -87.5V-149.75C69.3797 -149.75 97.25 -177.62 97.25 -212H159.5Z" fill="white"/>
</g>
<path d="M782 -25.25C747.62 -25.25 719.75 2.62027 719.75 37H657.5C657.5 -31.7594 713.241 -87.5 782 -87.5V-25.25Z" fill="white"/>
<path d="M781.997 -167.98L577.02 36.9975L533.003 -7.01776L737.98 -211.997L781.997 -167.98Z" fill="white"/>
<path d="M657.5 -212C657.5 -143.241 601.759 -87.5 533 -87.5V-149.75C567.38 -149.75 595.25 -177.62 595.25 -212H657.5Z" fill="white"/>
<g opacity="0.5">
<path d="M1031 -25.25C996.62 -25.25 968.75 2.62027 968.75 37H906.5C906.5 -31.7594 962.241 -87.5 1031 -87.5V-25.25Z" fill="white"/>
<path d="M1031 -167.98L826.02 36.9975L782.003 -7.01776L986.98 -211.997L1031 -167.98Z" fill="white"/>
<path d="M906.5 -212C906.5 -143.241 850.759 -87.5 782 -87.5V-149.75C816.38 -149.75 844.25 -177.62 844.25 -212H906.5Z" fill="white"/>
</g>
<path d="M35 223.75C0.620266 223.75 -27.25 251.62 -27.25 286H-89.5C-89.5 217.241 -33.7594 161.5 35 161.5V223.75Z" fill="white"/>
<path d="M34.9975 81.0203L-169.98 285.997L-213.997 241.982L-9.02029 37.0025L34.9975 81.0203Z" fill="white"/>
<path d="M-89.5 37C-89.5 105.759 -145.241 161.5 -214 161.5V99.25C-179.62 99.25 -151.75 71.3797 -151.75 37H-89.5Z" fill="white"/>
<path d="M35 -25.25C0.620266 -25.25 -27.25 2.62027 -27.25 37H-89.5C-89.5 -31.7594 -33.7594 -87.5 35 -87.5V-25.25Z" fill="white"/>
<path d="M34.9975 -167.98L-169.98 36.9975L-213.997 -7.01776L-9.02029 -211.997L34.9975 -167.98Z" fill="white"/>
<path d="M-89.5 -212C-89.5 -143.241 -145.241 -87.5 -214 -87.5V-149.75C-179.62 -149.75 -151.75 -177.62 -151.75 -212H-89.5Z" fill="white"/>
<path d="M35 472.75C0.620266 472.75 -27.25 500.62 -27.25 535H-89.5C-89.5 466.241 -33.7594 410.5 35 410.5V472.75Z" fill="white"/>
<path d="M34.9975 330.02L-169.98 534.997L-213.997 490.982L-9.02029 286.003L34.9975 330.02Z" fill="white"/>
<path d="M-89.5 286C-89.5 354.759 -145.241 410.5 -214 410.5V348.25C-179.62 348.25 -151.75 320.38 -151.75 286H-89.5Z" fill="white"/>
<g opacity="0.5">
<path d="M533 472.75C498.62 472.75 470.75 500.62 470.75 535H408.5C408.5 466.241 464.241 410.5 533 410.5V472.75Z" fill="white"/>
<path d="M532.997 330.02L328.02 534.997L284.003 490.982L488.98 286.003L532.997 330.02Z" fill="white"/>
<path d="M408.5 286C408.5 354.759 352.759 410.5 284 410.5V348.25C318.38 348.25 346.25 320.38 346.25 286H408.5Z" fill="white"/>
</g>
<g opacity="0.5">
<path d="M782 472.75C747.62 472.75 719.75 500.62 719.75 535H657.5C657.5 466.241 713.241 410.5 782 410.5V472.75Z" fill="white"/>
<path d="M781.997 330.02L577.02 534.997L533.003 490.982L737.98 286.003L781.997 330.02Z" fill="white"/>
<path d="M657.5 286C657.5 354.759 601.759 410.5 533 410.5V348.25C567.38 348.25 595.25 320.38 595.25 286H657.5Z" fill="white"/>
</g>
<path d="M1031 472.75C996.62 472.75 968.75 500.62 968.75 535H906.5C906.5 466.241 962.241 410.5 1031 410.5V472.75Z" fill="white"/>
<path d="M1031 330.02L826.02 534.997L782.003 490.982L986.98 286.003L1031 330.02Z" fill="white"/>
<path d="M906.5 286C906.5 354.759 850.759 410.5 782 410.5V348.25C816.38 348.25 844.25 320.38 844.25 286H906.5Z" fill="white"/>
<g opacity="0.3">
<path d="M1031 223.75C996.62 223.75 968.75 251.62 968.75 286H906.5C906.5 217.241 962.241 161.5 1031 161.5V223.75Z" fill="white"/>
<path d="M1031 81.0203L826.02 285.997L782.003 241.982L986.98 37.0025L1031 81.0203Z" fill="white"/>
<path d="M906.5 37C906.5 105.759 850.759 161.5 782 161.5V99.25C816.38 99.25 844.25 71.3797 844.25 37H906.5Z" fill="white"/>
</g>
</g>
<defs>
<clipPath id="clip0_1161_29083">
<rect width="996" height="315" fill="white"/>
</clipPath>
</defs>
</svg>
