<svg xmlns="http://www.w3.org/2000/svg" width="32" height="32" viewBox="0 0 32 32" fill="none">
    <path
        d="M20 16C20 18.2091 18.2091 20 16 20C13.7909 20 12 18.2091 12 16C12 13.7909 13.7909 12 16 12C18.2091 12 20 13.7909 20 16Z" />
    <path d="M8 8C8 3.58172 11.5817 3.49691e-07 16 3.49691e-07C20.4183 3.49691e-07 24 3.58172 24 8H8Z" />
    <path d="M24 24C24 28.4183 20.4183 32 16 32C11.5817 32 8 28.4183 8 24H24Z" />
    <path d="M8 24C3.58172 24 3.92403e-07 20.4183 4.4509e-07 16C4.97778e-07 11.5817 3.58172 8 8 8L8 24Z" />
    <path d="M24 8C28.4183 8 32 11.5817 32 16C32 20.4183 28.4183 24 24 24V8Z" />
    <path d="M8 8H3.49691e-07C3.49691e-07 3.58172 3.58172 3.49691e-07 8 3.49691e-07V8Z" />
    <path d="M24 24H32C32 28.4183 28.4183 32 24 32V24Z" />
    <path d="M8 24L8 32C3.58172 32 1.93129e-07 28.4183 0 24H8Z" />
    <path d="M24 8V0C28.4183 1.93129e-07 32 3.58172 32 8H24Z" />

    <style>
        path {
            fill: #09202E;
        }

        @media (prefers-color-scheme: dark) {
            path {
                fill: #F7F6F2;
            }
        }
    </style>
</svg>